<?xml version="1.0"?>
<svg xmlns="http://www.w3.org/2000/svg" xmlns:xlink="http://www.w3.org/1999/xlink" xmlns:svgjs="http://svgjs.com/svgjs" version="1.1" width="512" height="512" x="0" y="0" viewBox="0 0 64 64" style="enable-background:new 0 0 512 512" xml:space="preserve" class=""><g><g xmlns="http://www.w3.org/2000/svg" id="Layer_9" data-name="Layer 9"><path d="M3,44H61a0,0,0,0,1,0,0v9a2,2,0,0,1-2,2H5a2,2,0,0,1-2-2V44A0,0,0,0,1,3,44Z" style="" fill="#ffad42" data-original="#ff9811" class=""/><path d="M3,19H61a0,0,0,0,1,0,0V47a2,2,0,0,1-2,2H5a2,2,0,0,1-2-2V19A0,0,0,0,1,3,19Z" style="" fill="#ffe372" data-original="#ffcd00" class=""/><path d="M59,7H5A2,2,0,0,0,3,9V19H61V9A2,2,0,0,0,59,7ZM20.41,14.41A1.955,1.955,0,0,1,19,15H11a2.006,2.006,0,0,1-2-2,2.015,2.015,0,0,1,2-2h2a2,2,0,0,0,4,0h2a2.006,2.006,0,0,1,2,2A1.955,1.955,0,0,1,20.41,14.41Zm34,0A1.955,1.955,0,0,1,53,15H45a2.006,2.006,0,0,1-2-2,2.015,2.015,0,0,1,2-2h2a2,2,0,0,0,4,0h2a2.006,2.006,0,0,1,2,2A1.955,1.955,0,0,1,54.41,14.41Z" style="" fill="#66acff" data-original="#2488ff" class=""/><path d="M49,3a2,2,0,0,0-2,2v6a2,2,0,0,0,4,0V5A2,2,0,0,0,49,3Z" style="" fill="#ffad42" data-original="#ff9811" class=""/><path d="M15,3a2,2,0,0,0-2,2v6a2,2,0,0,0,4,0V5A2,2,0,0,0,15,3Z" style="" fill="#ffad42" data-original="#ff9811" class=""/><path d="M47,31c0,2.66-1.55,6.82-3.65,11.23S38.58,51.31,36.37,55c-1.47,2.45-2.74,4.48-3.53,5.71a1,1,0,0,1-1.68,0c-.79-1.23-2.06-3.26-3.53-5.71C23.2,47.62,17,36.33,17,31a15,15,0,0,1,30,0Z" style="" fill="#e4585e" data-original="#ed1c24" class=""/><path d="M32,16c-.506,0-1.006.027-1.5.076A15.006,15.006,0,0,1,44,31c0,2.66-1.55,6.82-3.65,11.23S35.58,51.31,33.37,55c-1.112,1.853-2.108,3.464-2.87,4.672.245.389.467.738.66,1.038a1,1,0,0,0,1.68,0c.79-1.23,2.06-3.26,3.53-5.71,2.21-3.69,4.87-8.36,6.98-12.77S47,33.66,47,31A15.005,15.005,0,0,0,32,16Z" style="" fill="#d80027" data-original="#d80027" class=""/><circle cx="32" cy="31" r="6" style="" fill="#f1f2f2" data-original="#f1f2f2" class=""/><path d="M59,6H52V5a3,3,0,0,0-6,0V6H18V5a3,3,0,0,0-6,0V6H5A3.009,3.009,0,0,0,2,9V53a3.009,3.009,0,0,0,3,3H27.05c1.24,2.05,2.38,3.86,3.27,5.25a1.994,1.994,0,0,0,3.36,0c.89-1.39,2.03-3.2,3.27-5.25H59a3.009,3.009,0,0,0,3-3V9A3.009,3.009,0,0,0,59,6ZM48,5a1,1,0,0,1,2,0v6a1,1,0,0,1-2,0Zm-1.82,7a2.988,2.988,0,0,0,5.64,0H53a1,1,0,0,1,1,1,.949.949,0,0,1-.31.71A.928.928,0,0,1,53,14H45a1,1,0,0,1-1-1,.949.949,0,0,1,.31-.71A.928.928,0,0,1,45,12ZM14,5a1,1,0,0,1,2,0v6a1,1,0,0,1-2,0Zm-1.82,7a2.988,2.988,0,0,0,5.64,0H19a1,1,0,0,1,1,1,.949.949,0,0,1-.31.71A.928.928,0,0,1,19,14H11a1,1,0,0,1-1-1,.949.949,0,0,1,.31-.71A.928.928,0,0,1,11,12ZM4,20H20.41A15.956,15.956,0,0,0,16,31c0,3.92,3.02,10.63,6.46,17H5a1,1,0,0,1-1-1ZM5,54a1,1,0,0,1-1-1V49.82A3,3,0,0,0,5,50H23.56c.77,1.38,1.54,2.72,2.3,4Zm27,6.17C25.23,49.6,18,36.39,18,31a14,14,0,0,1,28,0C46,36.39,38.77,49.6,32,60.17ZM60,53a1,1,0,0,1-1,1H38.14c.76-1.28,1.53-2.62,2.3-4H59a3,3,0,0,0,1-.18Zm0-6a1,1,0,0,1-1,1H41.54C44.98,41.63,48,34.92,48,31a15.956,15.956,0,0,0-4.41-11H60Zm0-29H41.29a15.884,15.884,0,0,0-18.58,0H4V9A1,1,0,0,1,5,8h7v2H11a3,3,0,0,0-3,3,3.009,3.009,0,0,0,3,3h8a3,3,0,0,0,3-3,3.009,3.009,0,0,0-3-3H18V8H46v2H45a3,3,0,0,0-3,3,3.009,3.009,0,0,0,3,3h8a3,3,0,0,0,3-3,3.009,3.009,0,0,0-3-3H52V8h7a1,1,0,0,1,1,1Z" style="" fill="#231f20" data-original="#231f20" class=""/><path d="M32,24a7,7,0,1,0,7,7A7.008,7.008,0,0,0,32,24Zm0,12a5,5,0,1,1,5-5A5.006,5.006,0,0,1,32,36Z" style="" fill="#231f20" data-original="#231f20" class=""/></g></g></svg>
